<mxfile host="app.diagrams.net" modified="2024-03-01T10:35:08.930Z" agent="Mozilla/5.0 (Windows NT 10.0; Win64; x64) AppleWebKit/537.36 (KHTML, like Gecko) Chrome/121.0.0.0 Safari/537.36" etag="bGe8yPmDZf5TZ11EljgH" version="24.0.0" type="device">
  <diagram name="Page-1" id="X4i39uvcA35fQJpyWO3G">
    <mxGraphModel dx="1434" dy="746" grid="1" gridSize="10" guides="1" tooltips="1" connect="1" arrows="1" fold="1" page="1" pageScale="1" pageWidth="827" pageHeight="1169" math="0" shadow="0">
      <root>
        <mxCell id="0" />
        <mxCell id="1" parent="0" />
        <mxCell id="9A_If8gkMGffLXBdzyJ6-1" value="" style="ellipse;html=1;shape=startState;fillColor=#000000;strokeColor=#ff0000;fontStyle=1" parent="1" vertex="1">
          <mxGeometry x="414" y="80" width="30" height="30" as="geometry" />
        </mxCell>
        <mxCell id="9A_If8gkMGffLXBdzyJ6-2" value="" style="edgeStyle=orthogonalEdgeStyle;html=1;verticalAlign=bottom;endArrow=open;endSize=8;strokeColor=#ff0000;rounded=0;entryX=0.5;entryY=0;entryDx=0;entryDy=0;fontStyle=1" parent="1" source="9A_If8gkMGffLXBdzyJ6-1" target="9A_If8gkMGffLXBdzyJ6-4" edge="1">
          <mxGeometry relative="1" as="geometry">
            <mxPoint x="429" y="170" as="targetPoint" />
          </mxGeometry>
        </mxCell>
        <mxCell id="9A_If8gkMGffLXBdzyJ6-9" style="edgeStyle=orthogonalEdgeStyle;rounded=0;orthogonalLoop=1;jettySize=auto;html=1;exitX=0.5;exitY=1;exitDx=0;exitDy=0;fontStyle=1" parent="1" source="9A_If8gkMGffLXBdzyJ6-4" target="9A_If8gkMGffLXBdzyJ6-5" edge="1">
          <mxGeometry relative="1" as="geometry" />
        </mxCell>
        <mxCell id="9A_If8gkMGffLXBdzyJ6-4" value="Login" style="rounded=0;whiteSpace=wrap;html=1;fontStyle=1;fillColor=#d5e8d4;strokeColor=#82b366;" parent="1" vertex="1">
          <mxGeometry x="369" y="160" width="120" height="60" as="geometry" />
        </mxCell>
        <mxCell id="9A_If8gkMGffLXBdzyJ6-8" style="edgeStyle=orthogonalEdgeStyle;rounded=0;orthogonalLoop=1;jettySize=auto;html=1;exitX=1;exitY=0.5;exitDx=0;exitDy=0;entryX=1;entryY=0.5;entryDx=0;entryDy=0;fontStyle=1" parent="1" source="9A_If8gkMGffLXBdzyJ6-5" target="9A_If8gkMGffLXBdzyJ6-4" edge="1">
          <mxGeometry relative="1" as="geometry">
            <Array as="points">
              <mxPoint x="570" y="300" />
              <mxPoint x="570" y="190" />
            </Array>
          </mxGeometry>
        </mxCell>
        <mxCell id="9A_If8gkMGffLXBdzyJ6-5" value="&lt;font style=&quot;font-size: 9px;&quot;&gt;&lt;span&gt;Authentication&lt;/span&gt;&lt;/font&gt;" style="rhombus;whiteSpace=wrap;html=1;fontStyle=1" parent="1" vertex="1">
          <mxGeometry x="389" y="260" width="80" height="80" as="geometry" />
        </mxCell>
        <mxCell id="9A_If8gkMGffLXBdzyJ6-11" value="" style="shape=line;html=1;strokeWidth=6;strokeColor=#ff0000;" parent="1" vertex="1">
          <mxGeometry x="41" y="390" width="770" height="10" as="geometry" />
        </mxCell>
        <mxCell id="9A_If8gkMGffLXBdzyJ6-15" style="edgeStyle=orthogonalEdgeStyle;rounded=0;orthogonalLoop=1;jettySize=auto;html=1;exitX=0.5;exitY=1;exitDx=0;exitDy=0;entryX=0.503;entryY=0.171;entryDx=0;entryDy=0;entryPerimeter=0;fontStyle=1" parent="1" source="9A_If8gkMGffLXBdzyJ6-5" target="9A_If8gkMGffLXBdzyJ6-11" edge="1">
          <mxGeometry relative="1" as="geometry" />
        </mxCell>
        <mxCell id="9A_If8gkMGffLXBdzyJ6-17" value="" style="endArrow=classic;html=1;rounded=0;exitX=0.054;exitY=0.75;exitDx=0;exitDy=0;exitPerimeter=0;entryX=0.5;entryY=0;entryDx=0;entryDy=0;fontStyle=1" parent="1" target="9A_If8gkMGffLXBdzyJ6-22" edge="1">
          <mxGeometry width="50" height="50" relative="1" as="geometry">
            <mxPoint x="170.00000000000017" y="397.5" as="sourcePoint" />
            <mxPoint x="170.42000000000002" y="470" as="targetPoint" />
          </mxGeometry>
        </mxCell>
        <mxCell id="9A_If8gkMGffLXBdzyJ6-19" value="" style="endArrow=classic;html=1;rounded=0;exitX=0.054;exitY=0.75;exitDx=0;exitDy=0;exitPerimeter=0;entryX=0.5;entryY=0;entryDx=0;entryDy=0;fontStyle=1" parent="1" target="9A_If8gkMGffLXBdzyJ6-23" edge="1">
          <mxGeometry width="50" height="50" relative="1" as="geometry">
            <mxPoint x="345.00000000000017" y="396.5" as="sourcePoint" />
            <mxPoint x="345.42" y="469" as="targetPoint" />
          </mxGeometry>
        </mxCell>
        <mxCell id="9A_If8gkMGffLXBdzyJ6-20" value="" style="endArrow=classic;html=1;rounded=0;exitX=0.054;exitY=0.75;exitDx=0;exitDy=0;exitPerimeter=0;entryX=0.5;entryY=0;entryDx=0;entryDy=0;fontStyle=1" parent="1" target="9A_If8gkMGffLXBdzyJ6-25" edge="1">
          <mxGeometry width="50" height="50" relative="1" as="geometry">
            <mxPoint x="520.0000000000002" y="400" as="sourcePoint" />
            <mxPoint x="520.4200000000001" y="472.5" as="targetPoint" />
          </mxGeometry>
        </mxCell>
        <mxCell id="9A_If8gkMGffLXBdzyJ6-21" value="" style="endArrow=classic;html=1;rounded=0;exitX=0.054;exitY=0.75;exitDx=0;exitDy=0;exitPerimeter=0;entryX=0.5;entryY=0;entryDx=0;entryDy=0;fontStyle=1" parent="1" target="9A_If8gkMGffLXBdzyJ6-26" edge="1">
          <mxGeometry width="50" height="50" relative="1" as="geometry">
            <mxPoint x="696.0000000000001" y="398" as="sourcePoint" />
            <mxPoint x="696.42" y="470.5" as="targetPoint" />
          </mxGeometry>
        </mxCell>
        <mxCell id="9A_If8gkMGffLXBdzyJ6-115" style="edgeStyle=orthogonalEdgeStyle;rounded=0;orthogonalLoop=1;jettySize=auto;html=1;exitX=0.5;exitY=1;exitDx=0;exitDy=0;fontStyle=1" parent="1" source="9A_If8gkMGffLXBdzyJ6-22" target="9A_If8gkMGffLXBdzyJ6-28" edge="1">
          <mxGeometry relative="1" as="geometry" />
        </mxCell>
        <mxCell id="9A_If8gkMGffLXBdzyJ6-116" style="edgeStyle=orthogonalEdgeStyle;rounded=0;orthogonalLoop=1;jettySize=auto;html=1;exitX=0.5;exitY=1;exitDx=0;exitDy=0;fontStyle=1" parent="1" source="9A_If8gkMGffLXBdzyJ6-22" target="9A_If8gkMGffLXBdzyJ6-103" edge="1">
          <mxGeometry relative="1" as="geometry" />
        </mxCell>
        <mxCell id="9A_If8gkMGffLXBdzyJ6-117" style="edgeStyle=orthogonalEdgeStyle;rounded=0;orthogonalLoop=1;jettySize=auto;html=1;exitX=0.5;exitY=1;exitDx=0;exitDy=0;fontStyle=1" parent="1" source="9A_If8gkMGffLXBdzyJ6-22" target="9A_If8gkMGffLXBdzyJ6-102" edge="1">
          <mxGeometry relative="1" as="geometry" />
        </mxCell>
        <mxCell id="9A_If8gkMGffLXBdzyJ6-22" value="&lt;font style=&quot;font-size: 12px;&quot;&gt;&lt;br&gt;Mange employee&lt;/font&gt;&lt;div style=&quot;&quot;&gt;&lt;br&gt;&lt;/div&gt;" style="rounded=0;whiteSpace=wrap;html=1;fontStyle=1;fillColor=#fff2cc;strokeColor=#d6b656;" parent="1" vertex="1">
          <mxGeometry x="120" y="480" width="100" height="40" as="geometry" />
        </mxCell>
        <mxCell id="9A_If8gkMGffLXBdzyJ6-118" style="edgeStyle=orthogonalEdgeStyle;rounded=0;orthogonalLoop=1;jettySize=auto;html=1;exitX=0.5;exitY=1;exitDx=0;exitDy=0;entryX=0.5;entryY=0;entryDx=0;entryDy=0;fontStyle=1" parent="1" source="9A_If8gkMGffLXBdzyJ6-23" target="9A_If8gkMGffLXBdzyJ6-106" edge="1">
          <mxGeometry relative="1" as="geometry" />
        </mxCell>
        <mxCell id="9A_If8gkMGffLXBdzyJ6-119" style="edgeStyle=orthogonalEdgeStyle;rounded=0;orthogonalLoop=1;jettySize=auto;html=1;exitX=0.5;exitY=1;exitDx=0;exitDy=0;fontStyle=1" parent="1" source="9A_If8gkMGffLXBdzyJ6-23" target="9A_If8gkMGffLXBdzyJ6-104" edge="1">
          <mxGeometry relative="1" as="geometry" />
        </mxCell>
        <mxCell id="9A_If8gkMGffLXBdzyJ6-120" style="edgeStyle=orthogonalEdgeStyle;rounded=0;orthogonalLoop=1;jettySize=auto;html=1;exitX=0.5;exitY=1;exitDx=0;exitDy=0;entryX=0.5;entryY=0;entryDx=0;entryDy=0;fontStyle=1" parent="1" source="9A_If8gkMGffLXBdzyJ6-23" target="9A_If8gkMGffLXBdzyJ6-105" edge="1">
          <mxGeometry relative="1" as="geometry" />
        </mxCell>
        <mxCell id="9A_If8gkMGffLXBdzyJ6-23" value="&lt;div style=&quot;&quot;&gt;Mange Query&lt;/div&gt;" style="rounded=0;whiteSpace=wrap;html=1;fontStyle=1;fillColor=#fff2cc;strokeColor=#d6b656;" parent="1" vertex="1">
          <mxGeometry x="295" y="479" width="100" height="40" as="geometry" />
        </mxCell>
        <mxCell id="9A_If8gkMGffLXBdzyJ6-121" style="edgeStyle=orthogonalEdgeStyle;rounded=0;orthogonalLoop=1;jettySize=auto;html=1;exitX=0.5;exitY=1;exitDx=0;exitDy=0;entryX=0.5;entryY=0;entryDx=0;entryDy=0;fontStyle=1" parent="1" source="9A_If8gkMGffLXBdzyJ6-25" target="9A_If8gkMGffLXBdzyJ6-107" edge="1">
          <mxGeometry relative="1" as="geometry" />
        </mxCell>
        <mxCell id="9A_If8gkMGffLXBdzyJ6-122" style="edgeStyle=orthogonalEdgeStyle;rounded=0;orthogonalLoop=1;jettySize=auto;html=1;exitX=0.5;exitY=1;exitDx=0;exitDy=0;entryX=0.5;entryY=0;entryDx=0;entryDy=0;fontStyle=1" parent="1" source="9A_If8gkMGffLXBdzyJ6-25" target="9A_If8gkMGffLXBdzyJ6-108" edge="1">
          <mxGeometry relative="1" as="geometry" />
        </mxCell>
        <mxCell id="9A_If8gkMGffLXBdzyJ6-25" value="Mange Leave" style="rounded=0;whiteSpace=wrap;html=1;fontStyle=1;fillColor=#fff2cc;strokeColor=#d6b656;" parent="1" vertex="1">
          <mxGeometry x="470" y="480" width="100" height="40" as="geometry" />
        </mxCell>
        <mxCell id="9A_If8gkMGffLXBdzyJ6-123" style="edgeStyle=orthogonalEdgeStyle;rounded=0;orthogonalLoop=1;jettySize=auto;html=1;exitX=0.5;exitY=1;exitDx=0;exitDy=0;entryX=0.5;entryY=0;entryDx=0;entryDy=0;fontStyle=1" parent="1" source="9A_If8gkMGffLXBdzyJ6-26" target="9A_If8gkMGffLXBdzyJ6-109" edge="1">
          <mxGeometry relative="1" as="geometry" />
        </mxCell>
        <mxCell id="9A_If8gkMGffLXBdzyJ6-124" style="edgeStyle=orthogonalEdgeStyle;rounded=0;orthogonalLoop=1;jettySize=auto;html=1;exitX=0.5;exitY=1;exitDx=0;exitDy=0;entryX=0.5;entryY=0;entryDx=0;entryDy=0;fontStyle=1" parent="1" source="9A_If8gkMGffLXBdzyJ6-26" target="9A_If8gkMGffLXBdzyJ6-112" edge="1">
          <mxGeometry relative="1" as="geometry" />
        </mxCell>
        <mxCell id="9A_If8gkMGffLXBdzyJ6-125" style="edgeStyle=orthogonalEdgeStyle;rounded=0;orthogonalLoop=1;jettySize=auto;html=1;exitX=0.5;exitY=1;exitDx=0;exitDy=0;fontStyle=1" parent="1" source="9A_If8gkMGffLXBdzyJ6-26" target="9A_If8gkMGffLXBdzyJ6-114" edge="1">
          <mxGeometry relative="1" as="geometry" />
        </mxCell>
        <mxCell id="9A_If8gkMGffLXBdzyJ6-126" style="edgeStyle=orthogonalEdgeStyle;rounded=0;orthogonalLoop=1;jettySize=auto;html=1;exitX=0.5;exitY=1;exitDx=0;exitDy=0;entryX=0.5;entryY=0;entryDx=0;entryDy=0;fontStyle=1" parent="1" source="9A_If8gkMGffLXBdzyJ6-26" target="9A_If8gkMGffLXBdzyJ6-113" edge="1">
          <mxGeometry relative="1" as="geometry" />
        </mxCell>
        <mxCell id="9A_If8gkMGffLXBdzyJ6-26" value="Manage Salary Report" style="rounded=0;whiteSpace=wrap;html=1;fontStyle=1;fillColor=#fff2cc;strokeColor=#d6b656;" parent="1" vertex="1">
          <mxGeometry x="647" y="480" width="100" height="40" as="geometry" />
        </mxCell>
        <mxCell id="9A_If8gkMGffLXBdzyJ6-28" value="Add Employee&lt;div&gt;Details&lt;/div&gt;" style="whiteSpace=wrap;html=1;rounded=0;flipV=1;direction=south;rotation=-90;fontStyle=1;" parent="1" vertex="1">
          <mxGeometry x="55" y="595.95" width="96.25" height="38.37" as="geometry" />
        </mxCell>
        <mxCell id="9A_If8gkMGffLXBdzyJ6-82" style="edgeStyle=orthogonalEdgeStyle;rounded=0;orthogonalLoop=1;jettySize=auto;html=1;entryX=0.5;entryY=0;entryDx=0;entryDy=0;fontStyle=1" parent="1" source="9A_If8gkMGffLXBdzyJ6-60" target="9A_If8gkMGffLXBdzyJ6-81" edge="1">
          <mxGeometry relative="1" as="geometry" />
        </mxCell>
        <mxCell id="9A_If8gkMGffLXBdzyJ6-60" value="" style="shape=line;html=1;strokeWidth=6;strokeColor=#ff0000;" parent="1" vertex="1">
          <mxGeometry x="41" y="720" width="770" height="10" as="geometry" />
        </mxCell>
        <mxCell id="9A_If8gkMGffLXBdzyJ6-88" style="edgeStyle=orthogonalEdgeStyle;rounded=0;orthogonalLoop=1;jettySize=auto;html=1;entryX=0.5;entryY=0;entryDx=0;entryDy=0;fillColor=#e51400;strokeColor=#ff0000;" parent="1" source="9A_If8gkMGffLXBdzyJ6-81" target="9A_If8gkMGffLXBdzyJ6-87" edge="1">
          <mxGeometry relative="1" as="geometry" />
        </mxCell>
        <mxCell id="9A_If8gkMGffLXBdzyJ6-81" value="Logout" style="rounded=0;whiteSpace=wrap;html=1;fontStyle=1;fillColor=#f8cecc;strokeColor=#b85450;" parent="1" vertex="1">
          <mxGeometry x="366" y="790" width="120" height="60" as="geometry" />
        </mxCell>
        <mxCell id="9A_If8gkMGffLXBdzyJ6-87" value="" style="ellipse;html=1;shape=endState;fillColor=#000000;strokeColor=#ff0000;" parent="1" vertex="1">
          <mxGeometry x="411" y="900" width="30" height="30" as="geometry" />
        </mxCell>
        <mxCell id="9A_If8gkMGffLXBdzyJ6-102" value="Update Employee&lt;div&gt;Deatails&lt;/div&gt;" style="whiteSpace=wrap;html=1;rounded=0;flipV=1;direction=south;rotation=-90;fontStyle=1;" parent="1" vertex="1">
          <mxGeometry x="166.34" y="594.61" width="96.25" height="43.05" as="geometry" />
        </mxCell>
        <mxCell id="9A_If8gkMGffLXBdzyJ6-103" value="&lt;div&gt;Delete Employee&lt;/div&gt;&lt;div&gt;Details&lt;/div&gt;" style="whiteSpace=wrap;html=1;rounded=0;flipV=1;direction=south;rotation=-90;fontStyle=1;" parent="1" vertex="1">
          <mxGeometry x="112.84" y="593.11" width="96.25" height="44.05" as="geometry" />
        </mxCell>
        <mxCell id="9A_If8gkMGffLXBdzyJ6-104" value="Show Query" style="whiteSpace=wrap;html=1;rounded=0;flipV=1;direction=south;rotation=-90;fontStyle=1;" parent="1" vertex="1">
          <mxGeometry x="242.37" y="595.95" width="96.25" height="38.37" as="geometry" />
        </mxCell>
        <mxCell id="9A_If8gkMGffLXBdzyJ6-105" value="Delete Query" style="whiteSpace=wrap;html=1;rounded=0;flipV=1;direction=south;rotation=-90;fontStyle=1;" parent="1" vertex="1">
          <mxGeometry x="351.37" y="595.95" width="96.25" height="38.37" as="geometry" />
        </mxCell>
        <mxCell id="9A_If8gkMGffLXBdzyJ6-106" value="Update Query&lt;div&gt;status&lt;/div&gt;" style="whiteSpace=wrap;html=1;rounded=0;flipV=1;direction=south;rotation=-90;fontStyle=1;" parent="1" vertex="1">
          <mxGeometry x="297.37" y="595.95" width="96.25" height="38.37" as="geometry" />
        </mxCell>
        <mxCell id="9A_If8gkMGffLXBdzyJ6-107" value="Approve Leave" style="whiteSpace=wrap;html=1;rounded=0;flipV=1;direction=south;rotation=-90;fontStyle=1" parent="1" vertex="1">
          <mxGeometry x="446.19" y="598.45" width="96.25" height="38.37" as="geometry" />
        </mxCell>
        <mxCell id="9A_If8gkMGffLXBdzyJ6-108" value="Reject Leave" style="whiteSpace=wrap;html=1;rounded=0;flipV=1;direction=south;rotation=-90;fontStyle=1" parent="1" vertex="1">
          <mxGeometry x="497.56" y="598.45" width="96.25" height="38.37" as="geometry" />
        </mxCell>
        <mxCell id="9A_If8gkMGffLXBdzyJ6-109" value="Generate Report" style="whiteSpace=wrap;html=1;rounded=0;flipV=1;direction=south;rotation=-90;fontStyle=1" parent="1" vertex="1">
          <mxGeometry x="573.37" y="598.95" width="96.25" height="38.37" as="geometry" />
        </mxCell>
        <mxCell id="9A_If8gkMGffLXBdzyJ6-112" value="Download Report" style="whiteSpace=wrap;html=1;rounded=0;flipV=1;direction=south;rotation=-90;fontStyle=1" parent="1" vertex="1">
          <mxGeometry x="626.37" y="598.95" width="96.25" height="38.37" as="geometry" />
        </mxCell>
        <mxCell id="9A_If8gkMGffLXBdzyJ6-113" value="Delete Report" style="whiteSpace=wrap;html=1;rounded=0;flipV=1;direction=south;rotation=-90;fontStyle=1" parent="1" vertex="1">
          <mxGeometry x="730.37" y="598.95" width="96.25" height="38.37" as="geometry" />
        </mxCell>
        <mxCell id="9A_If8gkMGffLXBdzyJ6-114" value="View Report" style="whiteSpace=wrap;html=1;rounded=0;flipV=1;direction=south;rotation=-90;fontStyle=1" parent="1" vertex="1">
          <mxGeometry x="676.37" y="598.95" width="96.25" height="38.37" as="geometry" />
        </mxCell>
        <mxCell id="9A_If8gkMGffLXBdzyJ6-127" style="edgeStyle=orthogonalEdgeStyle;rounded=0;orthogonalLoop=1;jettySize=auto;html=1;exitX=0.5;exitY=1;exitDx=0;exitDy=0;fontStyle=1;" parent="1" source="9A_If8gkMGffLXBdzyJ6-28" edge="1">
          <mxGeometry relative="1" as="geometry">
            <mxPoint x="103" y="720" as="targetPoint" />
          </mxGeometry>
        </mxCell>
        <mxCell id="9A_If8gkMGffLXBdzyJ6-128" style="edgeStyle=orthogonalEdgeStyle;rounded=0;orthogonalLoop=1;jettySize=auto;html=1;exitX=0.5;exitY=1;exitDx=0;exitDy=0;fontStyle=1" parent="1" source="9A_If8gkMGffLXBdzyJ6-103" edge="1">
          <mxGeometry relative="1" as="geometry">
            <mxPoint x="161" y="720" as="targetPoint" />
          </mxGeometry>
        </mxCell>
        <mxCell id="9A_If8gkMGffLXBdzyJ6-129" style="edgeStyle=orthogonalEdgeStyle;rounded=0;orthogonalLoop=1;jettySize=auto;html=1;exitX=0.5;exitY=1;exitDx=0;exitDy=0;entryX=0.226;entryY=0.1;entryDx=0;entryDy=0;entryPerimeter=0;fontStyle=1" parent="1" source="9A_If8gkMGffLXBdzyJ6-102" target="9A_If8gkMGffLXBdzyJ6-60" edge="1">
          <mxGeometry relative="1" as="geometry" />
        </mxCell>
        <mxCell id="9A_If8gkMGffLXBdzyJ6-130" style="edgeStyle=orthogonalEdgeStyle;rounded=0;orthogonalLoop=1;jettySize=auto;html=1;exitX=0.5;exitY=1;exitDx=0;exitDy=0;entryX=0.324;entryY=0.24;entryDx=0;entryDy=0;entryPerimeter=0;fontStyle=1" parent="1" source="9A_If8gkMGffLXBdzyJ6-104" target="9A_If8gkMGffLXBdzyJ6-60" edge="1">
          <mxGeometry relative="1" as="geometry" />
        </mxCell>
        <mxCell id="9A_If8gkMGffLXBdzyJ6-131" style="edgeStyle=orthogonalEdgeStyle;rounded=0;orthogonalLoop=1;jettySize=auto;html=1;exitX=0.5;exitY=1;exitDx=0;exitDy=0;entryX=0.396;entryY=0.24;entryDx=0;entryDy=0;entryPerimeter=0;fontStyle=1" parent="1" source="9A_If8gkMGffLXBdzyJ6-106" target="9A_If8gkMGffLXBdzyJ6-60" edge="1">
          <mxGeometry relative="1" as="geometry" />
        </mxCell>
        <mxCell id="9A_If8gkMGffLXBdzyJ6-132" style="edgeStyle=orthogonalEdgeStyle;rounded=0;orthogonalLoop=1;jettySize=auto;html=1;exitX=0.5;exitY=1;exitDx=0;exitDy=0;entryX=0.466;entryY=0.2;entryDx=0;entryDy=0;entryPerimeter=0;fontStyle=1" parent="1" source="9A_If8gkMGffLXBdzyJ6-105" target="9A_If8gkMGffLXBdzyJ6-60" edge="1">
          <mxGeometry relative="1" as="geometry" />
        </mxCell>
        <mxCell id="9A_If8gkMGffLXBdzyJ6-133" style="edgeStyle=orthogonalEdgeStyle;rounded=0;orthogonalLoop=1;jettySize=auto;html=1;exitX=0.5;exitY=1;exitDx=0;exitDy=0;entryX=0.589;entryY=0.24;entryDx=0;entryDy=0;entryPerimeter=0;fontStyle=1" parent="1" source="9A_If8gkMGffLXBdzyJ6-107" target="9A_If8gkMGffLXBdzyJ6-60" edge="1">
          <mxGeometry relative="1" as="geometry" />
        </mxCell>
        <mxCell id="9A_If8gkMGffLXBdzyJ6-134" style="edgeStyle=orthogonalEdgeStyle;rounded=0;orthogonalLoop=1;jettySize=auto;html=1;exitX=0.5;exitY=1;exitDx=0;exitDy=0;entryX=0.655;entryY=0.2;entryDx=0;entryDy=0;entryPerimeter=0;fontStyle=1" parent="1" source="9A_If8gkMGffLXBdzyJ6-108" target="9A_If8gkMGffLXBdzyJ6-60" edge="1">
          <mxGeometry relative="1" as="geometry" />
        </mxCell>
        <mxCell id="9A_If8gkMGffLXBdzyJ6-135" style="edgeStyle=orthogonalEdgeStyle;rounded=0;orthogonalLoop=1;jettySize=auto;html=1;exitX=0.5;exitY=1;exitDx=0;exitDy=0;entryX=0.755;entryY=0.28;entryDx=0;entryDy=0;entryPerimeter=0;fontStyle=1" parent="1" source="9A_If8gkMGffLXBdzyJ6-109" target="9A_If8gkMGffLXBdzyJ6-60" edge="1">
          <mxGeometry relative="1" as="geometry" />
        </mxCell>
        <mxCell id="9A_If8gkMGffLXBdzyJ6-136" style="edgeStyle=orthogonalEdgeStyle;rounded=0;orthogonalLoop=1;jettySize=auto;html=1;exitX=0.5;exitY=1;exitDx=0;exitDy=0;entryX=0.823;entryY=0.2;entryDx=0;entryDy=0;entryPerimeter=0;fontStyle=1" parent="1" source="9A_If8gkMGffLXBdzyJ6-112" target="9A_If8gkMGffLXBdzyJ6-60" edge="1">
          <mxGeometry relative="1" as="geometry" />
        </mxCell>
        <mxCell id="9A_If8gkMGffLXBdzyJ6-137" style="edgeStyle=orthogonalEdgeStyle;rounded=0;orthogonalLoop=1;jettySize=auto;html=1;exitX=0.5;exitY=1;exitDx=0;exitDy=0;entryX=0.888;entryY=0.2;entryDx=0;entryDy=0;entryPerimeter=0;fontStyle=1" parent="1" source="9A_If8gkMGffLXBdzyJ6-114" target="9A_If8gkMGffLXBdzyJ6-60" edge="1">
          <mxGeometry relative="1" as="geometry" />
        </mxCell>
        <mxCell id="9A_If8gkMGffLXBdzyJ6-138" style="edgeStyle=orthogonalEdgeStyle;rounded=0;orthogonalLoop=1;jettySize=auto;html=1;exitX=0.5;exitY=1;exitDx=0;exitDy=0;entryX=0.958;entryY=0.32;entryDx=0;entryDy=0;entryPerimeter=0;fontStyle=1" parent="1" source="9A_If8gkMGffLXBdzyJ6-113" target="9A_If8gkMGffLXBdzyJ6-60" edge="1">
          <mxGeometry relative="1" as="geometry" />
        </mxCell>
        <mxCell id="9A_If8gkMGffLXBdzyJ6-139" value="valid" style="text;html=1;align=center;verticalAlign=middle;resizable=0;points=[];autosize=1;strokeColor=none;fillColor=none;" parent="1" vertex="1">
          <mxGeometry x="419" y="330" width="50" height="30" as="geometry" />
        </mxCell>
        <mxCell id="9A_If8gkMGffLXBdzyJ6-140" value="Invalid" style="text;html=1;align=center;verticalAlign=middle;resizable=0;points=[];autosize=1;strokeColor=none;fillColor=none;" parent="1" vertex="1">
          <mxGeometry x="560" y="220" width="60" height="30" as="geometry" />
        </mxCell>
      </root>
    </mxGraphModel>
  </diagram>
</mxfile>
